<?xml version="1.0" encoding="utf-8"?>
<!-- Generated by Mocodo 4.2.10 -->
<svg width="588" height="517" viewBox="0 0 588 517" xmlns="http://www.w3.org/2000/svg">
<rect x="0" y="0" width="588" height="517" fill="#f7f7f7" stroke="none" stroke-width="0"/>

<!-- Entity CLIENT -->
<g>
	<g>
		<rect x="51" y="9" width="70" height="25" fill="#c2a5cf" stroke="none" stroke-width="0" opacity="1"/>
		<rect x="51" y="34" width="70" height="195" fill="#e7d4e8" stroke="none" stroke-width="0" opacity="1"/>
		<rect x="51" y="9" width="70" height="220" fill="none" stroke="#9970ab" stroke-width="2" opacity="1"/>
		<line x1="51" y1="34" x2="121" y2="34" stroke="#9970ab" stroke-width="1"/>
	</g>
	<text x="70" y="26.75" fill="#000000" font-family="Verdana" font-size="12">client</text>
	<text x="56" y="51.8" fill="#000000" font-family="Verdana" font-size="12">cid</text>
	<line x1="56" y1="54" x2="74" y2="54" stroke="#000000" stroke-width="1"/>
	<text x="56" y="68.8" fill="#000000" font-family="Verdana" font-size="12">nom</text>
	<text x="56" y="85.8" fill="#000000" font-family="Verdana" font-size="12">sexe</text>
	<text x="56" y="102.8" fill="#000000" font-family="Verdana" font-size="12">âge</text>
	<text x="56" y="119.8" fill="#000000" font-family="Verdana" font-size="12">num_voie</text>
	<text x="56" y="136.8" fill="#000000" font-family="Verdana" font-size="12">voie</text>
	<text x="56" y="153.8" fill="#000000" font-family="Verdana" font-size="12">ville</text>
	<text x="56" y="170.8" fill="#000000" font-family="Verdana" font-size="12">tél</text>
	<text x="56" y="187.8" fill="#000000" font-family="Verdana" font-size="12">#eid</text>
	<text x="56" y="204.8" fill="#000000" font-family="Verdana" font-size="12">#cid_par</text>
	<text x="56" y="221.8" fill="#000000" font-family="Verdana" font-size="12">date_par</text>
</g>

<!-- Entity INSCRIRE -->
<g>
	<g>
		<rect x="203" y="77" width="56" height="25" fill="#c2a5cf" stroke="none" stroke-width="0" opacity="1"/>
		<rect x="203" y="102" width="56" height="59" fill="#e7d4e8" stroke="none" stroke-width="0" opacity="1"/>
		<rect x="203" y="77" width="56" height="84" fill="none" stroke="#9970ab" stroke-width="2" opacity="1"/>
		<line x1="203" y1="102" x2="259" y2="102" stroke="#9970ab" stroke-width="1"/>
	</g>
	<text x="209" y="94.75" fill="#000000" font-family="Verdana" font-size="12">inscrire</text>
	<text x="208" y="119.8" fill="#000000" font-family="Verdana" font-size="12">#cid</text>
	<line x1="208" y1="122" x2="236" y2="122" stroke="#000000" stroke-width="1"/>
	<text x="208" y="136.8" fill="#000000" font-family="Verdana" font-size="12">#sid</text>
	<line x1="208" y1="139" x2="236" y2="139" stroke="#000000" stroke-width="1"/>
	<text x="208" y="153.8" fill="#000000" font-family="Verdana" font-size="12">date</text>
</g>

<!-- Entity SESSION -->
<g>
	<g>
		<rect x="331" y="51" width="76" height="25" fill="#c2a5cf" stroke="none" stroke-width="0" opacity="1"/>
		<rect x="331" y="76" width="76" height="111" fill="#e7d4e8" stroke="none" stroke-width="0" opacity="1"/>
		<rect x="331" y="51" width="76" height="136" fill="none" stroke="#9970ab" stroke-width="2" opacity="1"/>
		<line x1="331" y1="76" x2="407" y2="76" stroke="#9970ab" stroke-width="1"/>
	</g>
	<text x="347" y="68.75" fill="#000000" font-family="Verdana" font-size="12">session</text>
	<text x="336" y="93.8" fill="#000000" font-family="Verdana" font-size="12">sid</text>
	<line x1="336" y1="96" x2="354" y2="96" stroke="#000000" stroke-width="1"/>
	<text x="336" y="110.8" fill="#000000" font-family="Verdana" font-size="12">début</text>
	<text x="336" y="127.8" fill="#000000" font-family="Verdana" font-size="12">ville</text>
	<text x="336" y="144.8" fill="#000000" font-family="Verdana" font-size="12">nb_inscrits</text>
	<text x="336" y="161.8" fill="#000000" font-family="Verdana" font-size="12">#fid</text>
	<text x="336" y="178.8" fill="#000000" font-family="Verdana" font-size="12">#aid_resp</text>
</g>

<!-- Entity ANIMER -->
<g>
	<g>
		<rect x="471" y="77" width="76" height="25" fill="#c2a5cf" stroke="none" stroke-width="0" opacity="1"/>
		<rect x="471" y="102" width="76" height="59" fill="#e7d4e8" stroke="none" stroke-width="0" opacity="1"/>
		<rect x="471" y="77" width="76" height="84" fill="none" stroke="#9970ab" stroke-width="2" opacity="1"/>
		<line x1="471" y1="102" x2="547" y2="102" stroke="#9970ab" stroke-width="1"/>
	</g>
	<text x="488" y="94.75" fill="#000000" font-family="Verdana" font-size="12">animer</text>
	<text x="476" y="119.8" fill="#000000" font-family="Verdana" font-size="12">#sid</text>
	<line x1="476" y1="122" x2="504" y2="122" stroke="#000000" stroke-width="1"/>
	<text x="476" y="136.8" fill="#000000" font-family="Verdana" font-size="12">#aid</text>
	<line x1="476" y1="139" x2="505" y2="139" stroke="#000000" stroke-width="1"/>
	<text x="476" y="153.8" fill="#000000" font-family="Verdana" font-size="12">nb_heures</text>
</g>

<!-- Entity ENTREPRISE -->
<g>
	<g>
		<rect x="50" y="254" width="72" height="25" fill="#c2a5cf" stroke="none" stroke-width="0" opacity="1"/>
		<rect x="50" y="279" width="72" height="111" fill="#e7d4e8" stroke="none" stroke-width="0" opacity="1"/>
		<rect x="50" y="254" width="72" height="136" fill="none" stroke="#9970ab" stroke-width="2" opacity="1"/>
		<line x1="50" y1="279" x2="122" y2="279" stroke="#9970ab" stroke-width="1"/>
	</g>
	<text x="55" y="271.75" fill="#000000" font-family="Verdana" font-size="12">entreprise</text>
	<text x="55" y="296.8" fill="#000000" font-family="Verdana" font-size="12">eid</text>
	<line x1="55" y1="299" x2="74" y2="299" stroke="#000000" stroke-width="1"/>
	<text x="55" y="313.8" fill="#000000" font-family="Verdana" font-size="12">raison</text>
	<text x="55" y="330.8" fill="#000000" font-family="Verdana" font-size="12">activité</text>
	<text x="55" y="347.8" fill="#000000" font-family="Verdana" font-size="12">num_voie</text>
	<text x="55" y="364.8" fill="#000000" font-family="Verdana" font-size="12">voie</text>
	<text x="55" y="381.8" fill="#000000" font-family="Verdana" font-size="12">ville</text>
</g>

<!-- Entity PREREQUIS -->
<g>
	<g>
		<rect x="197" y="288" width="68" height="25" fill="#c2a5cf" stroke="none" stroke-width="0" opacity="1"/>
		<rect x="197" y="313" width="68" height="43" fill="#e7d4e8" stroke="none" stroke-width="0" opacity="1"/>
		<rect x="197" y="288" width="68" height="68" fill="none" stroke="#9970ab" stroke-width="2" opacity="1"/>
		<line x1="197" y1="313" x2="265" y2="313" stroke="#9970ab" stroke-width="1"/>
	</g>
	<text x="202" y="305.75" fill="#000000" font-family="Verdana" font-size="12">prérequis</text>
	<text x="202" y="330.8" fill="#000000" font-family="Verdana" font-size="12">#fid</text>
	<line x1="202" y1="333" x2="228" y2="333" stroke="#000000" stroke-width="1"/>
	<text x="202" y="347.8" fill="#000000" font-family="Verdana" font-size="12">#fid_req</text>
	<line x1="202" y1="350" x2="255" y2="350" stroke="#000000" stroke-width="1"/>
</g>

<!-- Entity FORMATION -->
<g>
	<g>
		<rect x="333" y="246" width="70" height="25" fill="#c2a5cf" stroke="none" stroke-width="0" opacity="1"/>
		<rect x="333" y="271" width="70" height="127" fill="#e7d4e8" stroke="none" stroke-width="0" opacity="1"/>
		<rect x="333" y="246" width="70" height="152" fill="none" stroke="#9970ab" stroke-width="2" opacity="1"/>
		<line x1="333" y1="271" x2="403" y2="271" stroke="#9970ab" stroke-width="1"/>
	</g>
	<text x="339" y="263.75" fill="#000000" font-family="Verdana" font-size="12">formation</text>
	<text x="338" y="288.8" fill="#000000" font-family="Verdana" font-size="12">fid</text>
	<line x1="338" y1="291" x2="354" y2="291" stroke="#000000" stroke-width="1"/>
	<text x="338" y="305.8" fill="#000000" font-family="Verdana" font-size="12">titre</text>
	<text x="338" y="322.8" fill="#000000" font-family="Verdana" font-size="12">nb_jours</text>
	<text x="338" y="339.8" fill="#000000" font-family="Verdana" font-size="12">nb_anims</text>
	<text x="338" y="356.8" fill="#000000" font-family="Verdana" font-size="12">prix</text>
	<text x="338" y="373.8" fill="#000000" font-family="Verdana" font-size="12">prime</text>
	<text x="338" y="390.8" fill="#000000" font-family="Verdana" font-size="12">#tid</text>
</g>

<!-- Entity ANIMATEUR -->
<g>
	<g>
		<rect x="472" y="229" width="74" height="25" fill="#c2a5cf" stroke="none" stroke-width="0" opacity="1"/>
		<rect x="472" y="254" width="74" height="161" fill="#e7d4e8" stroke="none" stroke-width="0" opacity="1"/>
		<rect x="472" y="229" width="74" height="186" fill="none" stroke="#9970ab" stroke-width="2" opacity="1"/>
		<line x1="472" y1="254" x2="546" y2="254" stroke="#9970ab" stroke-width="1"/>
	</g>
	<text x="478" y="246.75" fill="#000000" font-family="Verdana" font-size="12">animateur</text>
	<text x="477" y="271.8" fill="#000000" font-family="Verdana" font-size="12">aid</text>
	<line x1="477" y1="274" x2="496" y2="274" stroke="#000000" stroke-width="1"/>
	<text x="477" y="288.8" fill="#000000" font-family="Verdana" font-size="12">nom</text>
	<text x="477" y="305.8" fill="#000000" font-family="Verdana" font-size="12">sexe</text>
	<text x="477" y="322.8" fill="#000000" font-family="Verdana" font-size="12">âge</text>
	<text x="477" y="339.8" fill="#000000" font-family="Verdana" font-size="12">job</text>
	<text x="477" y="356.8" fill="#000000" font-family="Verdana" font-size="12">num_voie</text>
	<text x="477" y="373.8" fill="#000000" font-family="Verdana" font-size="12">voie</text>
	<text x="477" y="390.8" fill="#000000" font-family="Verdana" font-size="12">ville</text>
	<text x="477" y="407.8" fill="#000000" font-family="Verdana" font-size="12">tél</text>
</g>

<!-- Entity CONCURRENTES -->
<g>
	<g>
		<rect x="41" y="440" width="90" height="25" fill="#c2a5cf" stroke="none" stroke-width="0" opacity="1"/>
		<rect x="41" y="465" width="90" height="43" fill="#e7d4e8" stroke="none" stroke-width="0" opacity="1"/>
		<rect x="41" y="440" width="90" height="68" fill="none" stroke="#9970ab" stroke-width="2" opacity="1"/>
		<line x1="41" y1="465" x2="131" y2="465" stroke="#9970ab" stroke-width="1"/>
	</g>
	<text x="47" y="457.75" fill="#000000" font-family="Verdana" font-size="12">concurrentes</text>
	<text x="46" y="482.8" fill="#000000" font-family="Verdana" font-size="12">#eid 1</text>
	<line x1="46" y1="485" x2="87" y2="485" stroke="#000000" stroke-width="1"/>
	<text x="46" y="499.8" fill="#000000" font-family="Verdana" font-size="12">#eid 2</text>
	<line x1="46" y1="502" x2="87" y2="502" stroke="#000000" stroke-width="1"/>
</g>

<!-- Entity INTERESSER -->
<g>
	<g>
		<rect x="195" y="440" width="72" height="25" fill="#c2a5cf" stroke="none" stroke-width="0" opacity="1"/>
		<rect x="195" y="465" width="72" height="43" fill="#e7d4e8" stroke="none" stroke-width="0" opacity="1"/>
		<rect x="195" y="440" width="72" height="68" fill="none" stroke="#9970ab" stroke-width="2" opacity="1"/>
		<line x1="195" y1="465" x2="267" y2="465" stroke="#9970ab" stroke-width="1"/>
	</g>
	<text x="201" y="457.75" fill="#000000" font-family="Verdana" font-size="12">intéresser</text>
	<text x="200" y="482.8" fill="#000000" font-family="Verdana" font-size="12">#eid</text>
	<line x1="200" y1="485" x2="229" y2="485" stroke="#000000" stroke-width="1"/>
	<text x="200" y="499.8" fill="#000000" font-family="Verdana" font-size="12">#tid</text>
	<line x1="200" y1="502" x2="226" y2="502" stroke="#000000" stroke-width="1"/>
</g>

<!-- Entity THEME -->
<g>
	<g>
		<rect x="344" y="440" width="50" height="25" fill="#c2a5cf" stroke="none" stroke-width="0" opacity="1"/>
		<rect x="344" y="465" width="50" height="43" fill="#e7d4e8" stroke="none" stroke-width="0" opacity="1"/>
		<rect x="344" y="440" width="50" height="68" fill="none" stroke="#9970ab" stroke-width="2" opacity="1"/>
		<line x1="344" y1="465" x2="394" y2="465" stroke="#9970ab" stroke-width="1"/>
	</g>
	<text x="350" y="457.75" fill="#000000" font-family="Verdana" font-size="12">thème</text>
	<text x="349" y="482.8" fill="#000000" font-family="Verdana" font-size="12">tid</text>
	<line x1="349" y1="485" x2="366" y2="485" stroke="#000000" stroke-width="1"/>
	<text x="349" y="499.8" fill="#000000" font-family="Verdana" font-size="12">libellé</text>
</g>

<!-- Entity MAITRISER -->
<g>
	<g>
		<rect x="476" y="440" width="66" height="25" fill="#c2a5cf" stroke="none" stroke-width="0" opacity="1"/>
		<rect x="476" y="465" width="66" height="43" fill="#e7d4e8" stroke="none" stroke-width="0" opacity="1"/>
		<rect x="476" y="440" width="66" height="68" fill="none" stroke="#9970ab" stroke-width="2" opacity="1"/>
		<line x1="476" y1="465" x2="542" y2="465" stroke="#9970ab" stroke-width="1"/>
	</g>
	<text x="482" y="457.75" fill="#000000" font-family="Verdana" font-size="12">maîtriser</text>
	<text x="481" y="482.8" fill="#000000" font-family="Verdana" font-size="12">#aid</text>
	<line x1="481" y1="485" x2="510" y2="485" stroke="#000000" stroke-width="1"/>
	<text x="481" y="499.8" fill="#000000" font-family="Verdana" font-size="12">#tid</text>
	<line x1="481" y1="502" x2="507" y2="502" stroke="#000000" stroke-width="1"/>
</g>

<!-- Link from &quot;eid&quot; (CLIENT) to &quot;eid&quot; (ENTREPRISE) -->
<path d="M121 183.5 C175 238 176 292.5 122 292.5" fill="none" stroke="#5aae61" stroke-width="2"/>
<polygon points="122 292.5 134 286.5 130 292.5 134 298.5" fill="#5aae61" stroke-width="0"/>
<circle cx="121" cy="183.5" r="2" stroke="#5aae61" stroke-width="2" fill="#5aae61"/>

<!-- Link from &quot;cid&quot; (CLIENT) to &quot;cid&quot; (CLIENT) -->
<path d="M51 200.5 C-3 124 -3 47.5 51 47.5" fill="none" stroke="#5aae61" stroke-width="2"/>
<polygon points="51 47.5 39 53.5 43 47.5 39 41.5" fill="#5aae61" stroke-width="0"/>
<circle cx="51" cy="200.5" r="2" stroke="#5aae61" stroke-width="2" fill="#5aae61"/>

<!-- Link from &quot;cid&quot; (INSCRIRE) to &quot;cid&quot; (CLIENT) -->
<path d="M203 115.5 C162 81.5 175.67 47.5 121 47.5" fill="none" stroke="#5aae61" stroke-width="2"/>
<polygon points="121 47.5 133 41.5 129 47.5 133 53.5" fill="#5aae61" stroke-width="0"/>
<circle cx="203" cy="115.5" r="2" stroke="#5aae61" stroke-width="2" fill="#5aae61"/>

<!-- Link from &quot;sid&quot; (INSCRIRE) to &quot;sid&quot; (SESSION) -->
<path d="M259 132.5 C295 111 283 89.5 331 89.5" fill="none" stroke="#5aae61" stroke-width="2"/>
<polygon points="331 89.5 319 95.5 323 89.5 319 83.5" fill="#5aae61" stroke-width="0"/>
<circle cx="259" cy="132.5" r="2" stroke="#5aae61" stroke-width="2" fill="#5aae61"/>

<!-- Link from &quot;fid&quot; (SESSION) to &quot;fid&quot; (FORMATION) -->
<path d="M331 157.5 C277 221 279 284.5 333 284.5" fill="none" stroke="#5aae61" stroke-width="2"/>
<polygon points="333 284.5 321 290.5 325 284.5 321 278.5" fill="#5aae61" stroke-width="0"/>
<circle cx="331" cy="157.5" r="2" stroke="#5aae61" stroke-width="2" fill="#5aae61"/>

<!-- Link from &quot;aid&quot; (SESSION) to &quot;aid&quot; (ANIMATEUR) -->
<path d="M407 174.5 C439.5 221 428.67 267.5 472 267.5" fill="none" stroke="#5aae61" stroke-width="2"/>
<polygon points="472 267.5 460 273.5 464 267.5 460 261.5" fill="#5aae61" stroke-width="0"/>
<circle cx="407" cy="174.5" r="2" stroke="#5aae61" stroke-width="2" fill="#5aae61"/>

<!-- Link from &quot;sid&quot; (ANIMER) to &quot;sid&quot; (SESSION) -->
<path d="M471 115.5 C439 102.5 449.67 89.5 407 89.5" fill="none" stroke="#5aae61" stroke-width="2"/>
<polygon points="407 89.5 419 83.5 415 89.5 419 95.5" fill="#5aae61" stroke-width="0"/>
<circle cx="471" cy="115.5" r="2" stroke="#5aae61" stroke-width="2" fill="#5aae61"/>

<!-- Link from &quot;aid&quot; (ANIMER) to &quot;aid&quot; (ANIMATEUR) -->
<path d="M471 132.5 C417 200 418 267.5 472 267.5" fill="none" stroke="#5aae61" stroke-width="2"/>
<polygon points="472 267.5 460 273.5 464 267.5 460 261.5" fill="#5aae61" stroke-width="0"/>
<circle cx="471" cy="132.5" r="2" stroke="#5aae61" stroke-width="2" fill="#5aae61"/>

<!-- Link from &quot;fid&quot; (PREREQUIS) to &quot;fid&quot; (FORMATION) -->
<path d="M265 326.5 C299 305.5 287.67 284.5 333 284.5" fill="none" stroke="#5aae61" stroke-width="2"/>
<polygon points="333 284.5 321 290.5 325 284.5 321 278.5" fill="#5aae61" stroke-width="0"/>
<circle cx="265" cy="326.5" r="2" stroke="#5aae61" stroke-width="2" fill="#5aae61"/>

<!-- Link from &quot;fid&quot; (PREREQUIS) to &quot;fid&quot; (FORMATION) -->
<path d="M265 343.5 C299 314 287.67 284.5 333 284.5" fill="none" stroke="#5aae61" stroke-width="2"/>
<polygon points="333 284.5 321 290.5 325 284.5 321 278.5" fill="#5aae61" stroke-width="0"/>
<circle cx="265" cy="343.5" r="2" stroke="#5aae61" stroke-width="2" fill="#5aae61"/>

<!-- Link from &quot;tid&quot; (FORMATION) to &quot;tid&quot; (THEME) -->
<path d="M403 386.5 C457 432.5 448 478.5 394 478.5" fill="none" stroke="#5aae61" stroke-width="2"/>
<polygon points="394 478.5 406 472.5 402 478.5 406 484.5" fill="#5aae61" stroke-width="0"/>
<circle cx="403" cy="386.5" r="2" stroke="#5aae61" stroke-width="2" fill="#5aae61"/>

<!-- Link from &quot;eid&quot; (CONCURRENTES) to &quot;eid&quot; (ENTREPRISE) -->
<path d="M131 478.5 C185 385.5 176 292.5 122 292.5" fill="none" stroke="#5aae61" stroke-width="2"/>
<polygon points="122 292.5 134 286.5 130 292.5 134 298.5" fill="#5aae61" stroke-width="0"/>
<circle cx="131" cy="478.5" r="2" stroke="#5aae61" stroke-width="2" fill="#5aae61"/>

<!-- Link from &quot;eid&quot; (CONCURRENTES) to &quot;eid&quot; (ENTREPRISE) -->
<path d="M41 495.5 C-13 394 -4 292.5 50 292.5" fill="none" stroke="#5aae61" stroke-width="2"/>
<polygon points="50 292.5 38 298.5 42 292.5 38 286.5" fill="#5aae61" stroke-width="0"/>
<circle cx="41" cy="495.5" r="2" stroke="#5aae61" stroke-width="2" fill="#5aae61"/>

<!-- Link from &quot;eid&quot; (INTERESSER) to &quot;eid&quot; (ENTREPRISE) -->
<path d="M195 478.5 C158.5 385.5 170.67 292.5 122 292.5" fill="none" stroke="#5aae61" stroke-width="2"/>
<polygon points="122 292.5 134 286.5 130 292.5 134 298.5" fill="#5aae61" stroke-width="0"/>
<circle cx="195" cy="478.5" r="2" stroke="#5aae61" stroke-width="2" fill="#5aae61"/>

<!-- Link from &quot;tid&quot; (INTERESSER) to &quot;tid&quot; (THEME) -->
<path d="M267 495.5 C305.5 487 292.67 478.5 344 478.5" fill="none" stroke="#5aae61" stroke-width="2"/>
<polygon points="344 478.5 332 484.5 336 478.5 332 472.5" fill="#5aae61" stroke-width="0"/>
<circle cx="267" cy="495.5" r="2" stroke="#5aae61" stroke-width="2" fill="#5aae61"/>

<!-- Link from &quot;aid&quot; (MAITRISER) to &quot;aid&quot; (ANIMATEUR) -->
<path d="M542 478.5 C596 373 600 267.5 546 267.5" fill="none" stroke="#5aae61" stroke-width="2"/>
<polygon points="546 267.5 558 261.5 554 267.5 558 273.5" fill="#5aae61" stroke-width="0"/>
<circle cx="542" cy="478.5" r="2" stroke="#5aae61" stroke-width="2" fill="#5aae61"/>

<!-- Link from &quot;tid&quot; (MAITRISER) to &quot;tid&quot; (THEME) -->
<path d="M476 495.5 C435 487 448.67 478.5 394 478.5" fill="none" stroke="#5aae61" stroke-width="2"/>
<polygon points="394 478.5 406 472.5 402 478.5 406 484.5" fill="#5aae61" stroke-width="0"/>
<circle cx="476" cy="495.5" r="2" stroke="#5aae61" stroke-width="2" fill="#5aae61"/>
</svg>