<?xml version="1.0" encoding="utf-8"?>
<!-- Generated by Mocodo 4.3.2 -->
<svg width="732" height="525" viewBox="0 0 732 525" xmlns="http://www.w3.org/2000/svg">
<rect x="0" y="0" width="732" height="525" fill="#1A2622" stroke="none" stroke-width="0"/>

<!-- Entity CLIENT -->
<g>
	<g>
		<rect x="53" y="9" width="116" height="30" fill="#295943" stroke="none" stroke-width="0" opacity="1"/>
		<rect x="53" y="39" width="116" height="200" fill="#387F59" stroke="none" stroke-width="0" opacity="1"/>
		<rect x="53" y="9" width="116" height="230" fill="none" stroke="#6AD1A0" stroke-width="1.5" opacity="1"/>
		<line x1="53" y1="39" x2="169" y2="39" stroke="#6AD1A0" stroke-width="1.5"/>
	</g>
	<text x="82" y="30.3" fill="#C4F1D8" font-family="Copperplate" font-size="18">client</text>
	<text x="61" y="56" fill="#C4F1D8" font-family="Gill Sans" font-size="15">cid</text>
	<line x1="61" y1="59" x2="80" y2="59" stroke="#C4F1D8" stroke-width="1"/>
	<text x="61" y="73" fill="#C4F1D8" font-family="Gill Sans" font-size="15">nom</text>
	<text x="61" y="90" fill="#C4F1D8" font-family="Gill Sans" font-size="15">sexe</text>
	<text x="61" y="107.1" fill="#C4F1D8" font-family="Gill Sans" font-size="15">âge</text>
	<text x="61" y="124.1" fill="#C4F1D8" font-family="Gill Sans" font-size="15">num_voie</text>
	<text x="61" y="141.1" fill="#C4F1D8" font-family="Gill Sans" font-size="15">voie</text>
	<text x="61" y="158" fill="#C4F1D8" font-family="Gill Sans" font-size="15">ville</text>
	<text x="61" y="175" fill="#C4F1D8" font-family="Gill Sans" font-size="15">tél</text>
	<text x="61" y="192" fill="#C4F1D8" font-family="Gill Sans" font-size="15">#eid</text>
	<text x="61" y="209" fill="#C4F1D8" font-family="Gill Sans" font-size="15">#cid_parrain</text>
	<text x="61" y="226" fill="#C4F1D8" font-family="Gill Sans" font-size="15">date_parrainage</text>
</g>

<!-- Entity INSCRIRE -->
<g>
	<g>
		<rect x="253" y="77" width="94" height="30" fill="#295943" stroke="none" stroke-width="0" opacity="1"/>
		<rect x="253" y="107" width="94" height="64" fill="#387F59" stroke="none" stroke-width="0" opacity="1"/>
		<rect x="253" y="77" width="94" height="94" fill="none" stroke="#6AD1A0" stroke-width="1.5" opacity="1"/>
		<line x1="253" y1="107" x2="347" y2="107" stroke="#6AD1A0" stroke-width="1.5"/>
	</g>
	<text x="262" y="98.3" fill="#C4F1D8" font-family="Copperplate" font-size="18">inscrire</text>
	<text x="261" y="124.1" fill="#C4F1D8" font-family="Gill Sans" font-size="15">#cid</text>
	<line x1="261" y1="127" x2="289" y2="127" stroke="#C4F1D8" stroke-width="1"/>
	<text x="261" y="141.1" fill="#C4F1D8" font-family="Gill Sans" font-size="15">#sid</text>
	<line x1="261" y1="144" x2="288" y2="144" stroke="#C4F1D8" stroke-width="1"/>
	<text x="261" y="158" fill="#C4F1D8" font-family="Gill Sans" font-size="15">date</text>
</g>

<!-- Entity SESSION -->
<g>
	<g>
		<rect x="428" y="52" width="86" height="30" fill="#295943" stroke="none" stroke-width="0" opacity="1"/>
		<rect x="428" y="82" width="86" height="114" fill="#387F59" stroke="none" stroke-width="0" opacity="1"/>
		<rect x="428" y="52" width="86" height="144" fill="none" stroke="#6AD1A0" stroke-width="1.5" opacity="1"/>
		<line x1="428" y1="82" x2="514" y2="82" stroke="#6AD1A0" stroke-width="1.5"/>
	</g>
	<text x="436" y="73.3" fill="#C4F1D8" font-family="Copperplate" font-size="18">session</text>
	<text x="436" y="99.1" fill="#C4F1D8" font-family="Gill Sans" font-size="15">sid</text>
	<line x1="436" y1="102" x2="454" y2="102" stroke="#C4F1D8" stroke-width="1"/>
	<text x="436" y="116.1" fill="#C4F1D8" font-family="Gill Sans" font-size="15">début</text>
	<text x="436" y="133.1" fill="#C4F1D8" font-family="Gill Sans" font-size="15">ville</text>
	<text x="436" y="150.1" fill="#C4F1D8" font-family="Gill Sans" font-size="15">nb_inscrits</text>
	<text x="436" y="167" fill="#C4F1D8" font-family="Gill Sans" font-size="15">#fid</text>
	<text x="436" y="184" fill="#C4F1D8" font-family="Gill Sans" font-size="15">#aid_resp</text>
</g>

<!-- Entity ANIMATEUR -->
<g>
	<g>
		<rect x="584" y="26" width="110" height="30" fill="#295943" stroke="none" stroke-width="0" opacity="1"/>
		<rect x="584" y="56" width="110" height="166" fill="#387F59" stroke="none" stroke-width="0" opacity="1"/>
		<rect x="584" y="26" width="110" height="196" fill="none" stroke="#6AD1A0" stroke-width="1.5" opacity="1"/>
		<line x1="584" y1="56" x2="694" y2="56" stroke="#6AD1A0" stroke-width="1.5"/>
	</g>
	<text x="592" y="47.3" fill="#C4F1D8" font-family="Copperplate" font-size="18">animateur</text>
	<text x="592" y="73" fill="#C4F1D8" font-family="Gill Sans" font-size="15">aid</text>
	<line x1="592" y1="76" x2="611" y2="76" stroke="#C4F1D8" stroke-width="1"/>
	<text x="592" y="90" fill="#C4F1D8" font-family="Gill Sans" font-size="15">nom</text>
	<text x="592" y="107.1" fill="#C4F1D8" font-family="Gill Sans" font-size="15">sexe</text>
	<text x="592" y="124.1" fill="#C4F1D8" font-family="Gill Sans" font-size="15">âge</text>
	<text x="592" y="141.1" fill="#C4F1D8" font-family="Gill Sans" font-size="15">job</text>
	<text x="592" y="158" fill="#C4F1D8" font-family="Gill Sans" font-size="15">num_voie</text>
	<text x="592" y="175" fill="#C4F1D8" font-family="Gill Sans" font-size="15">voie</text>
	<text x="592" y="192" fill="#C4F1D8" font-family="Gill Sans" font-size="15">ville</text>
	<text x="592" y="209" fill="#C4F1D8" font-family="Gill Sans" font-size="15">tél</text>
</g>

<!-- Entity ENTREPRISE -->
<g>
	<g>
		<rect x="53" y="263" width="116" height="30" fill="#295943" stroke="none" stroke-width="0" opacity="1"/>
		<rect x="53" y="293" width="116" height="114" fill="#387F59" stroke="none" stroke-width="0" opacity="1"/>
		<rect x="53" y="263" width="116" height="144" fill="none" stroke="#6AD1A0" stroke-width="1.5" opacity="1"/>
		<line x1="53" y1="293" x2="169" y2="293" stroke="#6AD1A0" stroke-width="1.5"/>
	</g>
	<text x="61" y="284.3" fill="#C4F1D8" font-family="Copperplate" font-size="18">entreprise</text>
	<text x="61" y="310.1" fill="#C4F1D8" font-family="Gill Sans" font-size="15">eid</text>
	<line x1="61" y1="313" x2="81" y2="313" stroke="#C4F1D8" stroke-width="1"/>
	<text x="61" y="327.1" fill="#C4F1D8" font-family="Gill Sans" font-size="15">raison</text>
	<text x="61" y="344.1" fill="#C4F1D8" font-family="Gill Sans" font-size="15">activité</text>
	<text x="61" y="361.1" fill="#C4F1D8" font-family="Gill Sans" font-size="15">num_voie</text>
	<text x="61" y="378" fill="#C4F1D8" font-family="Gill Sans" font-size="15">voie</text>
	<text x="61" y="395" fill="#C4F1D8" font-family="Gill Sans" font-size="15">ville</text>
</g>

<!-- Entity PREREQUIS -->
<g>
	<g>
		<rect x="246" y="297" width="108" height="30" fill="#295943" stroke="none" stroke-width="0" opacity="1"/>
		<rect x="246" y="327" width="108" height="46" fill="#387F59" stroke="none" stroke-width="0" opacity="1"/>
		<rect x="246" y="297" width="108" height="76" fill="none" stroke="#6AD1A0" stroke-width="1.5" opacity="1"/>
		<line x1="246" y1="327" x2="354" y2="327" stroke="#6AD1A0" stroke-width="1.5"/>
	</g>
	<text x="254" y="318.3" fill="#C4F1D8" font-family="Copperplate" font-size="18">prérequis</text>
	<text x="254" y="344.1" fill="#C4F1D8" font-family="Gill Sans" font-size="15">#fid</text>
	<line x1="254" y1="347" x2="279" y2="347" stroke="#C4F1D8" stroke-width="1"/>
	<text x="254" y="361.1" fill="#C4F1D8" font-family="Gill Sans" font-size="15">#fid_req</text>
	<line x1="254" y1="364" x2="308" y2="364" stroke="#C4F1D8" stroke-width="1"/>
</g>

<!-- Entity FORMATION -->
<g>
	<g>
		<rect x="416" y="254" width="110" height="30" fill="#295943" stroke="none" stroke-width="0" opacity="1"/>
		<rect x="416" y="284" width="110" height="132" fill="#387F59" stroke="none" stroke-width="0" opacity="1"/>
		<rect x="416" y="254" width="110" height="162" fill="none" stroke="#6AD1A0" stroke-width="1.5" opacity="1"/>
		<line x1="416" y1="284" x2="526" y2="284" stroke="#6AD1A0" stroke-width="1.5"/>
	</g>
	<text x="424" y="275.3" fill="#C4F1D8" font-family="Copperplate" font-size="18">formation</text>
	<text x="424" y="301" fill="#C4F1D8" font-family="Gill Sans" font-size="15">fid</text>
	<line x1="424" y1="304" x2="440" y2="304" stroke="#C4F1D8" stroke-width="1"/>
	<text x="424" y="318.1" fill="#C4F1D8" font-family="Gill Sans" font-size="15">titre</text>
	<text x="424" y="335.1" fill="#C4F1D8" font-family="Gill Sans" font-size="15">nb_jours</text>
	<text x="424" y="352.1" fill="#C4F1D8" font-family="Gill Sans" font-size="15">nb_anims</text>
	<text x="424" y="369" fill="#C4F1D8" font-family="Gill Sans" font-size="15">prix</text>
	<text x="424" y="386" fill="#C4F1D8" font-family="Gill Sans" font-size="15">prime</text>
	<text x="424" y="403" fill="#C4F1D8" font-family="Gill Sans" font-size="15">#tid</text>
</g>

<!-- Entity ANIMER -->
<g>
	<g>
		<rect x="597" y="288" width="84" height="30" fill="#295943" stroke="none" stroke-width="0" opacity="1"/>
		<rect x="597" y="318" width="84" height="64" fill="#387F59" stroke="none" stroke-width="0" opacity="1"/>
		<rect x="597" y="288" width="84" height="94" fill="none" stroke="#6AD1A0" stroke-width="1.5" opacity="1"/>
		<line x1="597" y1="318" x2="681" y2="318" stroke="#6AD1A0" stroke-width="1.5"/>
	</g>
	<text x="608" y="309.3" fill="#C4F1D8" font-family="Copperplate" font-size="18">animer</text>
	<text x="605" y="335.1" fill="#C4F1D8" font-family="Gill Sans" font-size="15">#sid</text>
	<line x1="605" y1="338" x2="632" y2="338" stroke="#C4F1D8" stroke-width="1"/>
	<text x="605" y="352.1" fill="#C4F1D8" font-family="Gill Sans" font-size="15">#aid</text>
	<line x1="605" y1="355" x2="633" y2="355" stroke="#C4F1D8" stroke-width="1"/>
	<text x="605" y="369" fill="#C4F1D8" font-family="Gill Sans" font-size="15">nb_heures</text>
</g>

<!-- Entity CONCURRENTES -->
<g>
	<g>
		<rect x="38" y="440" width="146" height="30" fill="#295943" stroke="none" stroke-width="0" opacity="1"/>
		<rect x="38" y="470" width="146" height="46" fill="#387F59" stroke="none" stroke-width="0" opacity="1"/>
		<rect x="38" y="440" width="146" height="76" fill="none" stroke="#6AD1A0" stroke-width="1.5" opacity="1"/>
		<line x1="38" y1="470" x2="184" y2="470" stroke="#6AD1A0" stroke-width="1.5"/>
	</g>
	<text x="47" y="461.3" fill="#C4F1D8" font-family="Copperplate" font-size="18">concurrentes</text>
	<text x="46" y="487.1" fill="#C4F1D8" font-family="Gill Sans" font-size="15">#eid 1</text>
	<line x1="46" y1="490" x2="86" y2="490" stroke="#C4F1D8" stroke-width="1"/>
	<text x="46" y="504.1" fill="#C4F1D8" font-family="Gill Sans" font-size="15">#eid 2</text>
	<line x1="46" y1="507" x2="86" y2="507" stroke="#C4F1D8" stroke-width="1"/>
</g>

<!-- Entity INTERESSER -->
<g>
	<g>
		<rect x="242" y="440" width="116" height="30" fill="#295943" stroke="none" stroke-width="0" opacity="1"/>
		<rect x="242" y="470" width="116" height="46" fill="#387F59" stroke="none" stroke-width="0" opacity="1"/>
		<rect x="242" y="440" width="116" height="76" fill="none" stroke="#6AD1A0" stroke-width="1.5" opacity="1"/>
		<line x1="242" y1="470" x2="358" y2="470" stroke="#6AD1A0" stroke-width="1.5"/>
	</g>
	<text x="250" y="461.3" fill="#C4F1D8" font-family="Copperplate" font-size="18">intéresser</text>
	<text x="250" y="487.1" fill="#C4F1D8" font-family="Gill Sans" font-size="15">#eid</text>
	<line x1="250" y1="490" x2="278" y2="490" stroke="#C4F1D8" stroke-width="1"/>
	<text x="250" y="504.1" fill="#C4F1D8" font-family="Gill Sans" font-size="15">#tid</text>
	<line x1="250" y1="507" x2="276" y2="507" stroke="#C4F1D8" stroke-width="1"/>
</g>

<!-- Entity THEME -->
<g>
	<g>
		<rect x="435" y="440" width="72" height="30" fill="#295943" stroke="none" stroke-width="0" opacity="1"/>
		<rect x="435" y="470" width="72" height="46" fill="#387F59" stroke="none" stroke-width="0" opacity="1"/>
		<rect x="435" y="440" width="72" height="76" fill="none" stroke="#6AD1A0" stroke-width="1.5" opacity="1"/>
		<line x1="435" y1="470" x2="507" y2="470" stroke="#6AD1A0" stroke-width="1.5"/>
	</g>
	<text x="444" y="461.3" fill="#C4F1D8" font-family="Copperplate" font-size="18">thème</text>
	<text x="443" y="487.1" fill="#C4F1D8" font-family="Gill Sans" font-size="15">tid</text>
	<line x1="443" y1="490" x2="460" y2="490" stroke="#C4F1D8" stroke-width="1"/>
	<text x="443" y="504.1" fill="#C4F1D8" font-family="Gill Sans" font-size="15">libellé</text>
</g>

<!-- Entity MAITRISER -->
<g>
	<g>
		<rect x="587" y="440" width="104" height="30" fill="#295943" stroke="none" stroke-width="0" opacity="1"/>
		<rect x="587" y="470" width="104" height="46" fill="#387F59" stroke="none" stroke-width="0" opacity="1"/>
		<rect x="587" y="440" width="104" height="76" fill="none" stroke="#6AD1A0" stroke-width="1.5" opacity="1"/>
		<line x1="587" y1="470" x2="691" y2="470" stroke="#6AD1A0" stroke-width="1.5"/>
	</g>
	<text x="596" y="461.3" fill="#C4F1D8" font-family="Copperplate" font-size="18">maîtriser</text>
	<text x="595" y="487.1" fill="#C4F1D8" font-family="Gill Sans" font-size="15">#aid</text>
	<line x1="595" y1="490" x2="623" y2="490" stroke="#C4F1D8" stroke-width="1"/>
	<text x="595" y="504.1" fill="#C4F1D8" font-family="Gill Sans" font-size="15">#tid</text>
	<line x1="595" y1="507" x2="621" y2="507" stroke="#C4F1D8" stroke-width="1"/>
</g>

<!-- Link from &quot;eid&quot; (CLIENT) to &quot;eid&quot; (ENTREPRISE) -->
<path d="M169 189.5 C217 248.5 217 307.5 169 307.5" fill="none" stroke="#B4D877" stroke-width="1"/>
<polygon points="169 307.5 181 301.5 177 307.5 181 313.5" fill="#B4D877" stroke-width="0"/>
<circle cx="169" cy="189.5" r="1.5" stroke="#B4D877" stroke-width="1.5" fill="#B4D877"/>

<!-- Link from &quot;cid&quot; (CLIENT) to &quot;cid&quot; (CLIENT) -->
<path d="M53 206.5 C5 130 5 53.5 53 53.5" fill="none" stroke="#B4D877" stroke-width="1"/>
<polygon points="53 53.5 41 59.5 45 53.5 41 47.5" fill="#B4D877" stroke-width="0"/>
<circle cx="53" cy="206.5" r="1.5" stroke="#B4D877" stroke-width="1.5" fill="#B4D877"/>

<!-- Link from &quot;cid&quot; (INSCRIRE) to &quot;cid&quot; (CLIENT) -->
<path d="M253 121.5 C211 87.5 225 53.5 169 53.5" fill="none" stroke="#B4D877" stroke-width="1"/>
<polygon points="169 53.5 181 47.5 177 53.5 181 59.5" fill="#B4D877" stroke-width="0"/>
<circle cx="253" cy="121.5" r="1.5" stroke="#B4D877" stroke-width="1.5" fill="#B4D877"/>

<!-- Link from &quot;sid&quot; (INSCRIRE) to &quot;sid&quot; (SESSION) -->
<path d="M347 138.5 C387.5 117.5 374 96.5 428 96.5" fill="none" stroke="#B4D877" stroke-width="1"/>
<polygon points="428 96.5 416 102.5 420 96.5 416 90.5" fill="#B4D877" stroke-width="0"/>
<circle cx="347" cy="138.5" r="1.5" stroke="#B4D877" stroke-width="1.5" fill="#B4D877"/>

<!-- Link from &quot;fid&quot; (SESSION) to &quot;fid&quot; (FORMATION) -->
<path d="M514 164.5 C562 231.5 574 298.5 526 298.5" fill="none" stroke="#B4D877" stroke-width="1"/>
<polygon points="526 298.5 538 292.5 534 298.5 538 304.5" fill="#B4D877" stroke-width="0"/>
<circle cx="514" cy="164.5" r="1.5" stroke="#B4D877" stroke-width="1.5" fill="#B4D877"/>

<!-- Link from &quot;aid&quot; (SESSION) to &quot;aid&quot; (ANIMATEUR) -->
<path d="M514 181.5 C549 126 537.33 70.5 584 70.5" fill="none" stroke="#B4D877" stroke-width="1"/>
<polygon points="584 70.5 572 76.5 576 70.5 572 64.5" fill="#B4D877" stroke-width="0"/>
<circle cx="514" cy="181.5" r="1.5" stroke="#B4D877" stroke-width="1.5" fill="#B4D877"/>

<!-- Link from &quot;fid&quot; (PREREQUIS) to &quot;fid&quot; (FORMATION) -->
<path d="M354 341.5 C385 320 374.67 298.5 416 298.5" fill="none" stroke="#B4D877" stroke-width="1"/>
<polygon points="416 298.5 404 304.5 408 298.5 404 292.5" fill="#B4D877" stroke-width="0"/>
<circle cx="354" cy="341.5" r="1.5" stroke="#B4D877" stroke-width="1.5" fill="#B4D877"/>

<!-- Link from &quot;fid&quot; (PREREQUIS) to &quot;fid&quot; (FORMATION) -->
<path d="M354 358.5 C385 328.5 374.67 298.5 416 298.5" fill="none" stroke="#B4D877" stroke-width="1"/>
<polygon points="416 298.5 404 304.5 408 298.5 404 292.5" fill="#B4D877" stroke-width="0"/>
<circle cx="354" cy="358.5" r="1.5" stroke="#B4D877" stroke-width="1.5" fill="#B4D877"/>

<!-- Link from &quot;tid&quot; (FORMATION) to &quot;tid&quot; (THEME) -->
<path d="M526 400.5 C574 442.5 555 484.5 507 484.5" fill="none" stroke="#B4D877" stroke-width="1"/>
<polygon points="507 484.5 519 478.5 515 484.5 519 490.5" fill="#B4D877" stroke-width="0"/>
<circle cx="526" cy="400.5" r="1.5" stroke="#B4D877" stroke-width="1.5" fill="#B4D877"/>

<!-- Link from &quot;sid&quot; (ANIMER) to &quot;sid&quot; (SESSION) -->
<path d="M597 332.5 C555.5 214.5 569.33 96.5 514 96.5" fill="none" stroke="#B4D877" stroke-width="1"/>
<polygon points="514 96.5 526 90.5 522 96.5 526 102.5" fill="#B4D877" stroke-width="0"/>
<circle cx="597" cy="332.5" r="1.5" stroke="#B4D877" stroke-width="1.5" fill="#B4D877"/>

<!-- Link from &quot;aid&quot; (ANIMER) to &quot;aid&quot; (ANIMATEUR) -->
<path d="M597 349.5 C549 210 536 70.5 584 70.5" fill="none" stroke="#B4D877" stroke-width="1"/>
<polygon points="584 70.5 572 76.5 576 70.5 572 64.5" fill="#B4D877" stroke-width="0"/>
<circle cx="597" cy="349.5" r="1.5" stroke="#B4D877" stroke-width="1.5" fill="#B4D877"/>

<!-- Link from &quot;eid&quot; (CONCURRENTES) to &quot;eid&quot; (ENTREPRISE) -->
<path d="M184 484.5 C232 396 217 307.5 169 307.5" fill="none" stroke="#B4D877" stroke-width="1"/>
<polygon points="169 307.5 181 301.5 177 307.5 181 313.5" fill="#B4D877" stroke-width="0"/>
<circle cx="184" cy="484.5" r="1.5" stroke="#B4D877" stroke-width="1.5" fill="#B4D877"/>

<!-- Link from &quot;eid&quot; (CONCURRENTES) to &quot;eid&quot; (ENTREPRISE) -->
<path d="M38 501.5 C-10 404.5 5 307.5 53 307.5" fill="none" stroke="#B4D877" stroke-width="1"/>
<polygon points="53 307.5 41 313.5 45 307.5 41 301.5" fill="#B4D877" stroke-width="0"/>
<circle cx="38" cy="501.5" r="1.5" stroke="#B4D877" stroke-width="1.5" fill="#B4D877"/>

<!-- Link from &quot;eid&quot; (INTERESSER) to &quot;eid&quot; (ENTREPRISE) -->
<path d="M242 484.5 C205.5 396 217.67 307.5 169 307.5" fill="none" stroke="#B4D877" stroke-width="1"/>
<polygon points="169 307.5 181 301.5 177 307.5 181 313.5" fill="#B4D877" stroke-width="0"/>
<circle cx="242" cy="484.5" r="1.5" stroke="#B4D877" stroke-width="1.5" fill="#B4D877"/>

<!-- Link from &quot;tid&quot; (INTERESSER) to &quot;tid&quot; (THEME) -->
<path d="M358 501.5 C396.5 493 383.67 484.5 435 484.5" fill="none" stroke="#B4D877" stroke-width="1"/>
<polygon points="435 484.5 423 490.5 427 484.5 423 478.5" fill="#B4D877" stroke-width="0"/>
<circle cx="358" cy="501.5" r="1.5" stroke="#B4D877" stroke-width="1.5" fill="#B4D877"/>

<!-- Link from &quot;aid&quot; (MAITRISER) to &quot;aid&quot; (ANIMATEUR) -->
<path d="M691 484.5 C739 277.5 742 70.5 694 70.5" fill="none" stroke="#B4D877" stroke-width="1"/>
<polygon points="694 70.5 706 64.5 702 70.5 706 76.5" fill="#B4D877" stroke-width="0"/>
<circle cx="691" cy="484.5" r="1.5" stroke="#B4D877" stroke-width="1.5" fill="#B4D877"/>

<!-- Link from &quot;tid&quot; (MAITRISER) to &quot;tid&quot; (THEME) -->
<path d="M587 501.5 C547 493 560.33 484.5 507 484.5" fill="none" stroke="#B4D877" stroke-width="1"/>
<polygon points="507 484.5 519 478.5 515 484.5 519 490.5" fill="#B4D877" stroke-width="0"/>
<circle cx="587" cy="501.5" r="1.5" stroke="#B4D877" stroke-width="1.5" fill="#B4D877"/>
</svg>