<?xml version="1.0" encoding="utf-8"?>
<!-- Generated by Mocodo 4.2.10 -->
<svg width="931" height="623" viewBox="0 0 931 623" xmlns="http://www.w3.org/2000/svg">
<rect x="0" y="0" width="931" height="623" fill="none" stroke="none" stroke-width="0"/>

<!-- Association CONCURRENTES -->
<g>
	<path d="M269 98 C225.33 130 172.33 130 110 98" fill="none" stroke="#476062" stroke-width="1"/>
	<path d="M269 98 C225.33 66 172.33 66 110 98" fill="none" stroke="#476062" stroke-width="1"/>
	<g>
		<path d="M168 69 a14 14 90 0 1 14 14 V97 h-144 V83 a14 14 90 0 1 14 -14" fill="#9ebd6d" stroke="#9ebd6d" stroke-width="0"/>
		<path d="M182 97 v16 a14 14 90 0 1 -14 14 H52 a14 14 90 0 1 -14 -14 V97 H144" fill="#c3dbbb" stroke="#c3dbbb" stroke-width="0"/>
		<rect x="38" y="69" width="144" height="58" fill="none" rx="14" stroke="#8ea243" stroke-width="1.5"/>
		<line x1="38" y1="97" x2="182" y2="97" stroke="#8ea243" stroke-width="1.5"/>
		<text x="46" y="90.3" fill="#3d484a" font-family="Copperplate" font-size="18">concurrentes</text>
	</g>
	<text x="187" y="113" fill="#2f494e" font-family="Futura" font-size="11">0,N</text>
	<text x="187" y="91" fill="#2f494e" font-family="Futura" font-size="11">0,N</text>
</g>

<!-- Association EMPLOYER -->
<g>
	<line x1="524" y1="98" x2="406" y2="98" stroke="#476062" stroke-width="1"/>
	<line x1="269" y1="98" x2="406" y2="98" stroke="#476062" stroke-width="1"/>
	<g>
		<path d="M442 69 a14 14 90 0 1 14 14 V97 h-100 V83 a14 14 90 0 1 14 -14" fill="#9ebd6d" stroke="#9ebd6d" stroke-width="0"/>
		<path d="M456 97 v16 a14 14 90 0 1 -14 14 H370 a14 14 90 0 1 -14 -14 V97 H100" fill="#c3dbbb" stroke="#c3dbbb" stroke-width="0"/>
		<rect x="356" y="69" width="100" height="58" fill="none" rx="14" stroke="#8ea243" stroke-width="1.5"/>
		<line x1="356" y1="97" x2="456" y2="97" stroke="#8ea243" stroke-width="1.5"/>
		<text x="363" y="90.3" fill="#3d484a" font-family="Copperplate" font-size="18">employer</text>
	</g>
	<text x="462" y="114" fill="#2f494e" font-family="Futura" font-size="11">0,1</text>
	<text x="332" y="114" fill="#2f494e" font-family="Futura" font-size="11">0,N</text>
</g>

<!-- Association PARRAINER -->
<g>
	<path d="M524 98 C552 66 594.67 66 652 98" fill="none" stroke="#476062" stroke-width="1"/>
	<path d="M524 98 C552.67 130 595.33 130 652 98" fill="none" stroke="#476062" stroke-width="1"/>
	<g>
		<path d="M691 69 a14 14 90 0 1 14 14 V97 h-106 V83 a14 14 90 0 1 14 -14" fill="#9ebd6d" stroke="#9ebd6d" stroke-width="0"/>
		<path d="M705 97 v16 a14 14 90 0 1 -14 14 H613 a14 14 90 0 1 -14 -14 V97 H106" fill="#c3dbbb" stroke="#c3dbbb" stroke-width="0"/>
		<rect x="599" y="69" width="106" height="58" fill="none" rx="14" stroke="#8ea243" stroke-width="1.5"/>
		<line x1="599" y1="97" x2="705" y2="97" stroke="#8ea243" stroke-width="1.5"/>
		<text x="606" y="90.3" fill="#3d484a" font-family="Copperplate" font-size="18">parrainer</text>
		<text x="606" y="115.1" fill="#3d484a" font-family="Gill Sans" font-size="15">date_par</text>
	</g>
	<text x="568" y="91" fill="#2f494e" font-family="Futura" font-size="11">0,1</text>
	<text x="568" y="113" fill="#2f494e" font-family="Futura" font-size="11">0,N</text>
</g>

<!-- Association INTERESSER -->
<g>
	<line x1="269" y1="98" x2="269" y2="240" stroke="#476062" stroke-width="1"/>
	<line x1="269" y1="365" x2="269" y2="240" stroke="#476062" stroke-width="1"/>
	<g>
		<path d="M312 211 a14 14 90 0 1 14 14 V239 h-114 V225 a14 14 90 0 1 14 -14" fill="#9ebd6d" stroke="#9ebd6d" stroke-width="0"/>
		<path d="M326 239 v16 a14 14 90 0 1 -14 14 H226 a14 14 90 0 1 -14 -14 V239 H114" fill="#c3dbbb" stroke="#c3dbbb" stroke-width="0"/>
		<rect x="212" y="211" width="114" height="58" fill="none" rx="14" stroke="#8ea243" stroke-width="1.5"/>
		<line x1="212" y1="239" x2="326" y2="239" stroke="#8ea243" stroke-width="1.5"/>
		<text x="219" y="232.3" fill="#3d484a" font-family="Copperplate" font-size="18">intéresser</text>
	</g>
	<text x="274" y="186" fill="#2f494e" font-family="Futura" font-size="11">1,N</text>
	<text x="274" y="319" fill="#2f494e" font-family="Futura" font-size="11">1,N</text>
</g>

<!-- Association PREREQUIS -->
<g>
	<path d="M524 365 C485.33 294.67 485.33 253 524 240" fill="none" stroke="#476062" stroke-width="1"/>
	<path d="M524 365 C562.67 294.67 562.67 253 524 240" fill="none" stroke="#476062" stroke-width="1"/>
	<g>
		<path d="M563 211 a14 14 90 0 1 14 14 V239 h-106 V225 a14 14 90 0 1 14 -14" fill="#9ebd6d" stroke="#9ebd6d" stroke-width="0"/>
		<path d="M577 239 v16 a14 14 90 0 1 -14 14 H485 a14 14 90 0 1 -14 -14 V239 H106" fill="#c3dbbb" stroke="#c3dbbb" stroke-width="0"/>
		<rect x="471" y="211" width="106" height="58" fill="none" rx="14" stroke="#8ea243" stroke-width="1.5"/>
		<line x1="471" y1="239" x2="577" y2="239" stroke="#8ea243" stroke-width="1.5"/>
		<text x="478" y="232.3" fill="#3d484a" font-family="Copperplate" font-size="18">prérequis</text>
	</g>
	<text x="501" y="285" fill="#2f494e" font-family="Futura" font-size="11">0,N</text>
	<text x="528" y="285" fill="#2f494e" font-family="Futura" font-size="11">0,N</text>
</g>

<!-- Association INSCRIRE -->
<g>
	<path d="M524 98 C524.73 154.98 567.4 202.32 652 240" fill="none" stroke="#476062" stroke-width="1"/>
	<line x1="770" y1="240" x2="652" y2="240" stroke="#476062" stroke-width="1"/>
	<g>
		<path d="M684 211 a14 14 90 0 1 14 14 V239 h-92 V225 a14 14 90 0 1 14 -14" fill="#9ebd6d" stroke="#9ebd6d" stroke-width="0"/>
		<path d="M698 239 v16 a14 14 90 0 1 -14 14 H620 a14 14 90 0 1 -14 -14 V239 H92" fill="#c3dbbb" stroke="#c3dbbb" stroke-width="0"/>
		<rect x="606" y="211" width="92" height="58" fill="none" rx="14" stroke="#8ea243" stroke-width="1.5"/>
		<line x1="606" y1="239" x2="698" y2="239" stroke="#8ea243" stroke-width="1.5"/>
		<text x="614" y="232.3" fill="#3d484a" font-family="Copperplate" font-size="18">inscrire</text>
		<text x="613" y="257.1" fill="#3d484a" font-family="Gill Sans" font-size="15">date</text>
	</g>
	<text x="568" y="181.55" fill="#2f494e" font-family="Futura" font-size="11">0,N</text>
	<text x="703" y="232" fill="#2f494e" font-family="Futura" font-size="11">0,N</text>
</g>

<!-- Association DF0 -->
<g>
	<line x1="524" y1="365" x2="406" y2="365" stroke="#476062" stroke-width="1"/>
	<line x1="269" y1="365" x2="406" y2="365" stroke="#476062" stroke-width="1"/>
	<g>
		<circle cx="406" cy="365" r="20" stroke="#8ea243" stroke-width="1.5" fill="#9ebd6d"/>
		<text x="393" y="369.8" fill="#3d484a" font-family="Copperplate" font-size="18">DF</text>
	</g>
	<text x="446" y="381" fill="#2f494e" font-family="Futura" font-size="11">1,1</text>
	<text x="310" y="381" fill="#2f494e" font-family="Futura" font-size="11">1,N</text>
</g>

<!-- Association DF1 -->
<g>
	<line x1="770" y1="240" x2="652" y2="365" stroke="#476062" stroke-width="1"/>
	<line x1="524" y1="365" x2="652" y2="365" stroke="#476062" stroke-width="1"/>
	<g>
		<circle cx="652" cy="365" r="20" stroke="#8ea243" stroke-width="1.5" fill="#9ebd6d"/>
		<text x="639" y="369.8" fill="#3d484a" font-family="Copperplate" font-size="18">DF</text>
	</g>
	<text x="704" y="284.33" fill="#2f494e" font-family="Futura" font-size="11">1,1</text>
	<text x="584" y="381" fill="#2f494e" font-family="Futura" font-size="11">1,N</text>
</g>

<!-- Association ANIMER -->
<g>
	<line x1="770" y1="240" x2="770" y2="365" stroke="#476062" stroke-width="1"/>
	<line x1="770" y1="516" x2="770" y2="365" stroke="#476062" stroke-width="1"/>
	<g>
		<path d="M797 336 a14 14 90 0 1 14 14 V364 h-82 V350 a14 14 90 0 1 14 -14" fill="#9ebd6d" stroke="#9ebd6d" stroke-width="0"/>
		<path d="M811 364 v16 a14 14 90 0 1 -14 14 H743 a14 14 90 0 1 -14 -14 V364 H82" fill="#c3dbbb" stroke="#c3dbbb" stroke-width="0"/>
		<rect x="729" y="336" width="82" height="58" fill="none" rx="14" stroke="#8ea243" stroke-width="1.5"/>
		<line x1="729" y1="364" x2="811" y2="364" stroke="#8ea243" stroke-width="1.5"/>
		<text x="739" y="357.3" fill="#3d484a" font-family="Copperplate" font-size="18">animer</text>
		<text x="736" y="382.1" fill="#3d484a" font-family="Gill Sans" font-size="15">nb_heures</text>
	</g>
	<text x="775" y="311" fill="#2f494e" font-family="Futura" font-size="11">1,N</text>
	<text x="746" y="410" fill="#2f494e" font-family="Futura" font-size="11">1,N</text>
</g>

<!-- Association DIRIGER -->
<g>
	<line x1="770" y1="240" x2="881" y2="365" stroke="#476062" stroke-width="1"/>
	<line x1="770" y1="516" x2="881" y2="365" stroke="#476062" stroke-width="1"/>
	<g>
		<path d="M908 336 a14 14 90 0 1 14 14 V364 h-82 V350 a14 14 90 0 1 14 -14" fill="#9ebd6d" stroke="#9ebd6d" stroke-width="0"/>
		<path d="M922 364 v16 a14 14 90 0 1 -14 14 H854 a14 14 90 0 1 -14 -14 V364 H82" fill="#c3dbbb" stroke="#c3dbbb" stroke-width="0"/>
		<rect x="840" y="336" width="82" height="58" fill="none" rx="14" stroke="#8ea243" stroke-width="1.5"/>
		<line x1="840" y1="364" x2="922" y2="364" stroke="#8ea243" stroke-width="1.5"/>
		<text x="848" y="357.3" fill="#3d484a" font-family="Copperplate" font-size="18">diriger</text>
	</g>
	<text x="818" y="286.9" fill="#2f494e" font-family="Futura" font-size="11">1,1</text>
	<text x="830" y="451.62" fill="#2f494e" font-family="Futura" font-size="11">0,N</text>
</g>

<!-- Association MAITRISER -->
<g>
	<line x1="770" y1="516" x2="269" y2="516" stroke="#476062" stroke-width="1"/>
	<line x1="269" y1="365" x2="269" y2="516" stroke="#476062" stroke-width="1"/>
	<g>
		<path d="M306 487 a14 14 90 0 1 14 14 V515 h-102 V501 a14 14 90 0 1 14 -14" fill="#9ebd6d" stroke="#9ebd6d" stroke-width="0"/>
		<path d="M320 515 v16 a14 14 90 0 1 -14 14 H232 a14 14 90 0 1 -14 -14 V515 H102" fill="#c3dbbb" stroke="#c3dbbb" stroke-width="0"/>
		<rect x="218" y="487" width="102" height="58" fill="none" rx="14" stroke="#8ea243" stroke-width="1.5"/>
		<line x1="218" y1="515" x2="320" y2="515" stroke="#8ea243" stroke-width="1.5"/>
		<text x="226" y="508.3" fill="#3d484a" font-family="Copperplate" font-size="18">maîtriser</text>
	</g>
	<text x="691" y="532" fill="#2f494e" font-family="Futura" font-size="11">1,N</text>
	<text x="274" y="419" fill="#2f494e" font-family="Futura" font-size="11">0,N</text>
</g>

<!-- Entity ENTREPRISE -->
<g>
	<g>
		<rect x="211" y="26" width="116" height="30" fill="#7ecb9a" stroke="none" stroke-width="0" opacity="1"/>
		<rect x="211" y="56" width="116" height="114" fill="#a6efb3" stroke="none" stroke-width="0" opacity="1"/>
		<rect x="211" y="26" width="116" height="144" fill="none" stroke="#387252" stroke-width="1.5" opacity="1"/>
		<line x1="211" y1="56" x2="327" y2="56" stroke="#387252" stroke-width="1.5"/>
	</g>
	<text x="219" y="47.3" fill="#1b5343" font-family="Copperplate" font-size="18">entreprise</text>
	<text x="219" y="73.1" fill="#1b5343" font-family="Gill Sans" font-size="15">eid</text>
	<line x1="219" y1="76" x2="239" y2="76" stroke="#1b5343" stroke-width="1"/>
	<text x="219" y="90.1" fill="#1b5343" font-family="Gill Sans" font-size="15">raison</text>
	<text x="219" y="107.1" fill="#1b5343" font-family="Gill Sans" font-size="15">activité</text>
	<text x="219" y="124.1" fill="#1b5343" font-family="Gill Sans" font-size="15">num_voie</text>
	<text x="219" y="141" fill="#1b5343" font-family="Gill Sans" font-size="15">voie</text>
	<text x="219" y="158" fill="#1b5343" font-family="Gill Sans" font-size="15">ville</text>
</g>

<!-- Entity CLIENT -->
<g>
	<g>
		<rect x="485" y="9" width="78" height="30" fill="#7ecb9a" stroke="none" stroke-width="0" opacity="1"/>
		<rect x="485" y="39" width="78" height="148" fill="#a6efb3" stroke="none" stroke-width="0" opacity="1"/>
		<rect x="485" y="9" width="78" height="178" fill="none" stroke="#387252" stroke-width="1.5" opacity="1"/>
		<line x1="485" y1="39" x2="563" y2="39" stroke="#387252" stroke-width="1.5"/>
	</g>
	<text x="495" y="30.3" fill="#1b5343" font-family="Copperplate" font-size="18">client</text>
	<text x="493" y="56" fill="#1b5343" font-family="Gill Sans" font-size="15">cid</text>
	<line x1="493" y1="59" x2="512" y2="59" stroke="#1b5343" stroke-width="1"/>
	<text x="493" y="73.1" fill="#1b5343" font-family="Gill Sans" font-size="15">nom</text>
	<text x="493" y="90.1" fill="#1b5343" font-family="Gill Sans" font-size="15">sexe</text>
	<text x="493" y="107.1" fill="#1b5343" font-family="Gill Sans" font-size="15">âge</text>
	<text x="493" y="124.1" fill="#1b5343" font-family="Gill Sans" font-size="15">num_voie</text>
	<text x="493" y="141" fill="#1b5343" font-family="Gill Sans" font-size="15">voie</text>
	<text x="493" y="158" fill="#1b5343" font-family="Gill Sans" font-size="15">ville</text>
	<text x="493" y="175" fill="#1b5343" font-family="Gill Sans" font-size="15">tél</text>
</g>

<!-- Entity SESSION -->
<g>
	<g>
		<rect x="727" y="185" width="86" height="30" fill="#7ecb9a" stroke="none" stroke-width="0" opacity="1"/>
		<rect x="727" y="215" width="86" height="80" fill="#a6efb3" stroke="none" stroke-width="0" opacity="1"/>
		<rect x="727" y="185" width="86" height="110" fill="none" stroke="#387252" stroke-width="1.5" opacity="1"/>
		<line x1="727" y1="215" x2="813" y2="215" stroke="#387252" stroke-width="1.5"/>
	</g>
	<text x="735" y="206.3" fill="#1b5343" font-family="Copperplate" font-size="18">session</text>
	<text x="735" y="232.1" fill="#1b5343" font-family="Gill Sans" font-size="15">sid</text>
	<line x1="735" y1="235" x2="753" y2="235" stroke="#1b5343" stroke-width="1"/>
	<text x="735" y="249.1" fill="#1b5343" font-family="Gill Sans" font-size="15">début</text>
	<text x="735" y="266.1" fill="#1b5343" font-family="Gill Sans" font-size="15">ville</text>
	<text x="735" y="283" fill="#1b5343" font-family="Gill Sans" font-size="15">nb_inscrits</text>
</g>

<!-- Entity THEME -->
<g>
	<g>
		<rect x="233" y="327" width="72" height="30" fill="#7ecb9a" stroke="none" stroke-width="0" opacity="1"/>
		<rect x="233" y="357" width="72" height="46" fill="#a6efb3" stroke="none" stroke-width="0" opacity="1"/>
		<rect x="233" y="327" width="72" height="76" fill="none" stroke="#387252" stroke-width="1.5" opacity="1"/>
		<line x1="233" y1="357" x2="305" y2="357" stroke="#387252" stroke-width="1.5"/>
	</g>
	<text x="242" y="348.3" fill="#1b5343" font-family="Copperplate" font-size="18">thème</text>
	<text x="241" y="374.1" fill="#1b5343" font-family="Gill Sans" font-size="15">tid</text>
	<line x1="241" y1="377" x2="258" y2="377" stroke="#1b5343" stroke-width="1"/>
	<text x="241" y="391.1" fill="#1b5343" font-family="Gill Sans" font-size="15">libellé</text>
</g>

<!-- Entity FORMATION -->
<g>
	<g>
		<rect x="469" y="293" width="110" height="30" fill="#7ecb9a" stroke="none" stroke-width="0" opacity="1"/>
		<rect x="469" y="323" width="110" height="114" fill="#a6efb3" stroke="none" stroke-width="0" opacity="1"/>
		<rect x="469" y="293" width="110" height="144" fill="none" stroke="#387252" stroke-width="1.5" opacity="1"/>
		<line x1="469" y1="323" x2="579" y2="323" stroke="#387252" stroke-width="1.5"/>
	</g>
	<text x="477" y="314.3" fill="#1b5343" font-family="Copperplate" font-size="18">formation</text>
	<text x="477" y="340.1" fill="#1b5343" font-family="Gill Sans" font-size="15">fid</text>
	<line x1="477" y1="343" x2="493" y2="343" stroke="#1b5343" stroke-width="1"/>
	<text x="477" y="357.1" fill="#1b5343" font-family="Gill Sans" font-size="15">titre</text>
	<text x="477" y="374.1" fill="#1b5343" font-family="Gill Sans" font-size="15">nb_jours</text>
	<text x="477" y="391.1" fill="#1b5343" font-family="Gill Sans" font-size="15">nb_anims</text>
	<text x="477" y="408" fill="#1b5343" font-family="Gill Sans" font-size="15">prix</text>
	<text x="477" y="425" fill="#1b5343" font-family="Gill Sans" font-size="15">prime</text>
</g>

<!-- Entity ANIMATEUR -->
<g>
	<g>
		<rect x="715" y="418" width="110" height="30" fill="#7ecb9a" stroke="none" stroke-width="0" opacity="1"/>
		<rect x="715" y="448" width="110" height="166" fill="#a6efb3" stroke="none" stroke-width="0" opacity="1"/>
		<rect x="715" y="418" width="110" height="196" fill="none" stroke="#387252" stroke-width="1.5" opacity="1"/>
		<line x1="715" y1="448" x2="825" y2="448" stroke="#387252" stroke-width="1.5"/>
	</g>
	<text x="723" y="439.3" fill="#1b5343" font-family="Copperplate" font-size="18">animateur</text>
	<text x="723" y="465" fill="#1b5343" font-family="Gill Sans" font-size="15">aid</text>
	<line x1="723" y1="468" x2="742" y2="468" stroke="#1b5343" stroke-width="1"/>
	<text x="723" y="482" fill="#1b5343" font-family="Gill Sans" font-size="15">nom</text>
	<text x="723" y="499.1" fill="#1b5343" font-family="Gill Sans" font-size="15">sexe</text>
	<text x="723" y="516.1" fill="#1b5343" font-family="Gill Sans" font-size="15">âge</text>
	<text x="723" y="533.1" fill="#1b5343" font-family="Gill Sans" font-size="15">job</text>
	<text x="723" y="550" fill="#1b5343" font-family="Gill Sans" font-size="15">num_voie</text>
	<text x="723" y="567" fill="#1b5343" font-family="Gill Sans" font-size="15">voie</text>
	<text x="723" y="584" fill="#1b5343" font-family="Gill Sans" font-size="15">ville</text>
	<text x="723" y="601" fill="#1b5343" font-family="Gill Sans" font-size="15">tél</text>
</g>
</svg>