<?xml version="1.0" encoding="utf-8"?>
<!-- Generated by Mocodo 4.1.2 -->
<svg width="738" height="517" viewBox="0 0 738 517" xmlns="http://www.w3.org/2000/svg">
<rect x="0" y="0" width="738" height="517" fill="#f7f7f7" stroke="none" stroke-width="0"/>

<!-- Entity CLIENT -->
<g>
	<g>
		<rect x="179" y="29" width="70" height="25" fill="#c2a5cf" stroke="none" stroke-width="0" opacity="1"/>
		<rect x="179" y="54" width="70" height="195" fill="#e7d4e8" stroke="none" stroke-width="0" opacity="1"/>
		<rect x="179" y="29" width="70" height="220" fill="none" stroke="#9970ab" stroke-width="2" opacity="1"/>
		<line x1="179" y1="54" x2="249" y2="54" stroke="#9970ab" stroke-width="1"/>
	</g>
	<text x="197" y="46.75" fill="#000000" font-family="Verdana" font-size="12">client</text>
	<text x="184" y="71.8" fill="#000000" font-family="Verdana" font-size="12">cid</text>
	<line x1="184" y1="74" x2="202" y2="74" stroke="#000000" stroke-width="1"/>
	<text x="184" y="88.8" fill="#000000" font-family="Verdana" font-size="12">nom</text>
	<text x="184" y="105.8" fill="#000000" font-family="Verdana" font-size="12">sexe</text>
	<text x="184" y="122.8" fill="#000000" font-family="Verdana" font-size="12">âge</text>
	<text x="184" y="139.8" fill="#000000" font-family="Verdana" font-size="12">num_voie</text>
	<text x="184" y="156.8" fill="#000000" font-family="Verdana" font-size="12">voie</text>
	<text x="184" y="173.8" fill="#000000" font-family="Verdana" font-size="12">ville</text>
	<text x="184" y="190.8" fill="#000000" font-family="Verdana" font-size="12">tél</text>
	<text x="184" y="207.8" fill="#000000" font-family="Verdana" font-size="12">#eid</text>
	<text x="184" y="224.8" fill="#000000" font-family="Verdana" font-size="12">#cid_par</text>
	<text x="184" y="241.8" fill="#000000" font-family="Verdana" font-size="12">date_par</text>
</g>

<!-- Entity INSCRIRE -->
<g>
	<g>
		<rect x="328" y="57" width="58" height="25" fill="#c2a5cf" stroke="none" stroke-width="0" opacity="1"/>
		<rect x="328" y="82" width="58" height="59" fill="#e7d4e8" stroke="none" stroke-width="0" opacity="1"/>
		<rect x="328" y="57" width="58" height="84" fill="none" stroke="#9970ab" stroke-width="2" opacity="1"/>
		<line x1="328" y1="82" x2="386" y2="82" stroke="#9970ab" stroke-width="1"/>
	</g>
	<text x="334" y="74.75" fill="#000000" font-family="Verdana" font-size="12">inscrire</text>
	<text x="333" y="99.8" fill="#000000" font-family="Verdana" font-size="12">#cid</text>
	<line x1="333" y1="102" x2="361" y2="102" stroke="#000000" stroke-width="1"/>
	<text x="333" y="116.8" fill="#000000" font-family="Verdana" font-size="12">#sid</text>
	<line x1="333" y1="119" x2="361" y2="119" stroke="#000000" stroke-width="1"/>
	<text x="333" y="133.8" fill="#000000" font-family="Verdana" font-size="12">date</text>
</g>

<!-- Entity SESSION -->
<g>
	<g>
		<rect x="463" y="31" width="76" height="25" fill="#c2a5cf" stroke="none" stroke-width="0" opacity="1"/>
		<rect x="463" y="56" width="76" height="111" fill="#e7d4e8" stroke="none" stroke-width="0" opacity="1"/>
		<rect x="463" y="31" width="76" height="136" fill="none" stroke="#9970ab" stroke-width="2" opacity="1"/>
		<line x1="463" y1="56" x2="539" y2="56" stroke="#9970ab" stroke-width="1"/>
	</g>
	<text x="478" y="48.75" fill="#000000" font-family="Verdana" font-size="12">session</text>
	<text x="468" y="73.8" fill="#000000" font-family="Verdana" font-size="12">sid</text>
	<line x1="468" y1="76" x2="486" y2="76" stroke="#000000" stroke-width="1"/>
	<text x="468" y="90.8" fill="#000000" font-family="Verdana" font-size="12">début</text>
	<text x="468" y="107.8" fill="#000000" font-family="Verdana" font-size="12">ville</text>
	<text x="468" y="124.8" fill="#000000" font-family="Verdana" font-size="12">nb_inscrits</text>
	<text x="468" y="141.8" fill="#000000" font-family="Verdana" font-size="12">#aid_resp</text>
	<text x="468" y="158.8" fill="#000000" font-family="Verdana" font-size="12">#fid</text>
</g>

<!-- Entity ANIMER -->
<g>
	<g>
		<rect x="613" y="65" width="54" height="25" fill="#c2a5cf" stroke="none" stroke-width="0" opacity="1"/>
		<rect x="613" y="90" width="54" height="43" fill="#e7d4e8" stroke="none" stroke-width="0" opacity="1"/>
		<rect x="613" y="65" width="54" height="68" fill="none" stroke="#9970ab" stroke-width="2" opacity="1"/>
		<line x1="613" y1="90" x2="667" y2="90" stroke="#9970ab" stroke-width="1"/>
	</g>
	<text x="618" y="82.75" fill="#000000" font-family="Verdana" font-size="12">animer</text>
	<text x="618" y="107.8" fill="#000000" font-family="Verdana" font-size="12">#sid</text>
	<line x1="618" y1="110" x2="646" y2="110" stroke="#000000" stroke-width="1"/>
	<text x="618" y="124.8" fill="#000000" font-family="Verdana" font-size="12">#aid</text>
	<line x1="618" y1="127" x2="647" y2="127" stroke="#000000" stroke-width="1"/>
</g>

<!-- Entity CONCURRENTES -->
<g>
	<g>
		<rect x="21" y="278" width="92" height="25" fill="#c2a5cf" stroke="none" stroke-width="0" opacity="1"/>
		<rect x="21" y="303" width="92" height="43" fill="#e7d4e8" stroke="none" stroke-width="0" opacity="1"/>
		<rect x="21" y="278" width="92" height="68" fill="none" stroke="#9970ab" stroke-width="2" opacity="1"/>
		<line x1="21" y1="303" x2="113" y2="303" stroke="#9970ab" stroke-width="1"/>
	</g>
	<text x="27" y="295.75" fill="#000000" font-family="Verdana" font-size="12">concurrentes</text>
	<text x="26" y="320.8" fill="#000000" font-family="Verdana" font-size="12">#eid_1</text>
	<line x1="26" y1="323" x2="67" y2="323" stroke="#000000" stroke-width="1"/>
	<text x="26" y="337.8" fill="#000000" font-family="Verdana" font-size="12">#eid_2</text>
	<line x1="26" y1="340" x2="67" y2="340" stroke="#000000" stroke-width="1"/>
</g>

<!-- Entity ENTREPRISE -->
<g>
	<g>
		<rect x="177" y="284" width="74" height="25" fill="#c2a5cf" stroke="none" stroke-width="0" opacity="1"/>
		<rect x="177" y="309" width="74" height="111" fill="#e7d4e8" stroke="none" stroke-width="0" opacity="1"/>
		<rect x="177" y="284" width="74" height="136" fill="none" stroke="#9970ab" stroke-width="2" opacity="1"/>
		<line x1="177" y1="309" x2="251" y2="309" stroke="#9970ab" stroke-width="1"/>
	</g>
	<text x="183" y="301.75" fill="#000000" font-family="Verdana" font-size="12">entreprise</text>
	<text x="182" y="326.8" fill="#000000" font-family="Verdana" font-size="12">eid</text>
	<line x1="182" y1="329" x2="201" y2="329" stroke="#000000" stroke-width="1"/>
	<text x="182" y="343.8" fill="#000000" font-family="Verdana" font-size="12">raison</text>
	<text x="182" y="360.8" fill="#000000" font-family="Verdana" font-size="12">activité</text>
	<text x="182" y="377.8" fill="#000000" font-family="Verdana" font-size="12">num_voie</text>
	<text x="182" y="394.8" fill="#000000" font-family="Verdana" font-size="12">voie</text>
	<text x="182" y="411.8" fill="#000000" font-family="Verdana" font-size="12">ville</text>
</g>

<!-- Entity PRE_REQUIS -->
<g>
	<g>
		<rect x="325" y="218" width="74" height="25" fill="#c2a5cf" stroke="none" stroke-width="0" opacity="1"/>
		<rect x="325" y="243" width="74" height="43" fill="#e7d4e8" stroke="none" stroke-width="0" opacity="1"/>
		<rect x="325" y="218" width="74" height="68" fill="none" stroke="#9970ab" stroke-width="2" opacity="1"/>
		<line x1="325" y1="243" x2="399" y2="243" stroke="#9970ab" stroke-width="1"/>
	</g>
	<text x="333" y="235.75" fill="#000000" font-family="Verdana" font-size="12">prérequis</text>
	<text x="330" y="260.8" fill="#000000" font-family="Verdana" font-size="12">#fid</text>
	<line x1="330" y1="263" x2="346" y2="263" stroke="#000000" stroke-width="1"/>
	<text x="330" y="277.8" fill="#000000" font-family="Verdana" font-size="12">#fid_req</text>
	<line x1="330" y1="280" x2="384" y2="280" stroke="#000000" stroke-width="1"/>
</g>

<!-- Entity FORMATION -->
<g>
	<g>
		<rect x="465" y="226" width="72" height="25" fill="#c2a5cf" stroke="none" stroke-width="0" opacity="1"/>
		<rect x="465" y="251" width="72" height="127" fill="#e7d4e8" stroke="none" stroke-width="0" opacity="1"/>
		<rect x="465" y="226" width="72" height="152" fill="none" stroke="#9970ab" stroke-width="2" opacity="1"/>
		<line x1="465" y1="251" x2="537" y2="251" stroke="#9970ab" stroke-width="1"/>
	</g>
	<text x="470" y="243.75" fill="#000000" font-family="Verdana" font-size="12">formation</text>
	<text x="470" y="268.8" fill="#000000" font-family="Verdana" font-size="12">fid</text>
	<line x1="470" y1="271" x2="486" y2="271" stroke="#000000" stroke-width="1"/>
	<text x="470" y="285.8" fill="#000000" font-family="Verdana" font-size="12">titre</text>
	<text x="470" y="302.8" fill="#000000" font-family="Verdana" font-size="12">nb_jours</text>
	<text x="470" y="319.8" fill="#000000" font-family="Verdana" font-size="12">nb_anims</text>
	<text x="470" y="336.8" fill="#000000" font-family="Verdana" font-size="12">prix</text>
	<text x="470" y="353.8" fill="#000000" font-family="Verdana" font-size="12">prime</text>
	<text x="470" y="370.8" fill="#000000" font-family="Verdana" font-size="12">#tid</text>
</g>

<!-- Entity ANIMATEUR -->
<g>
	<g>
		<rect x="603" y="169" width="74" height="25" fill="#c2a5cf" stroke="none" stroke-width="0" opacity="1"/>
		<rect x="603" y="194" width="74" height="161" fill="#e7d4e8" stroke="none" stroke-width="0" opacity="1"/>
		<rect x="603" y="169" width="74" height="186" fill="none" stroke="#9970ab" stroke-width="2" opacity="1"/>
		<line x1="603" y1="194" x2="677" y2="194" stroke="#9970ab" stroke-width="1"/>
	</g>
	<text x="608" y="186.75" fill="#000000" font-family="Verdana" font-size="12">animateur</text>
	<text x="608" y="211.8" fill="#000000" font-family="Verdana" font-size="12">aid</text>
	<line x1="608" y1="214" x2="627" y2="214" stroke="#000000" stroke-width="1"/>
	<text x="608" y="228.8" fill="#000000" font-family="Verdana" font-size="12">nom</text>
	<text x="608" y="245.8" fill="#000000" font-family="Verdana" font-size="12">sexe</text>
	<text x="608" y="262.8" fill="#000000" font-family="Verdana" font-size="12">âge</text>
	<text x="608" y="279.8" fill="#000000" font-family="Verdana" font-size="12">job</text>
	<text x="608" y="296.8" fill="#000000" font-family="Verdana" font-size="12">num_voie</text>
	<text x="608" y="313.8" fill="#000000" font-family="Verdana" font-size="12">voie</text>
	<text x="608" y="330.8" fill="#000000" font-family="Verdana" font-size="12">ville</text>
	<text x="608" y="347.8" fill="#000000" font-family="Verdana" font-size="12">tél</text>
</g>

<!-- Entity INTERESSER -->
<g>
	<g>
		<rect x="320" y="370" width="74" height="25" fill="#c2a5cf" stroke="none" stroke-width="0" opacity="1"/>
		<rect x="320" y="395" width="74" height="43" fill="#e7d4e8" stroke="none" stroke-width="0" opacity="1"/>
		<rect x="320" y="370" width="74" height="68" fill="none" stroke="#9970ab" stroke-width="2" opacity="1"/>
		<line x1="320" y1="395" x2="394" y2="395" stroke="#9970ab" stroke-width="1"/>
	</g>
	<text x="326" y="387.75" fill="#000000" font-family="Verdana" font-size="12">intéresser</text>
	<text x="325" y="412.8" fill="#000000" font-family="Verdana" font-size="12">#eid</text>
	<line x1="325" y1="415" x2="354" y2="415" stroke="#000000" stroke-width="1"/>
	<text x="325" y="429.8" fill="#000000" font-family="Verdana" font-size="12">#tid</text>
	<line x1="325" y1="432" x2="351" y2="432" stroke="#000000" stroke-width="1"/>
</g>

<!-- Entity THEME -->
<g>
	<g>
		<rect x="475" y="420" width="52" height="25" fill="#c2a5cf" stroke="none" stroke-width="0" opacity="1"/>
		<rect x="475" y="445" width="52" height="43" fill="#e7d4e8" stroke="none" stroke-width="0" opacity="1"/>
		<rect x="475" y="420" width="52" height="68" fill="none" stroke="#9970ab" stroke-width="2" opacity="1"/>
		<line x1="475" y1="445" x2="527" y2="445" stroke="#9970ab" stroke-width="1"/>
	</g>
	<text x="480" y="437.75" fill="#000000" font-family="Verdana" font-size="12">thème</text>
	<text x="480" y="462.8" fill="#000000" font-family="Verdana" font-size="12">tid</text>
	<line x1="480" y1="465" x2="497" y2="465" stroke="#000000" stroke-width="1"/>
	<text x="480" y="479.8" fill="#000000" font-family="Verdana" font-size="12">libellé</text>
</g>

<!-- Entity MAITRISER -->
<g>
	<g>
		<rect x="608" y="390" width="64" height="25" fill="#c2a5cf" stroke="none" stroke-width="0" opacity="1"/>
		<rect x="608" y="415" width="64" height="43" fill="#e7d4e8" stroke="none" stroke-width="0" opacity="1"/>
		<rect x="608" y="390" width="64" height="68" fill="none" stroke="#9970ab" stroke-width="2" opacity="1"/>
		<line x1="608" y1="415" x2="672" y2="415" stroke="#9970ab" stroke-width="1"/>
	</g>
	<text x="614" y="407.75" fill="#000000" font-family="Verdana" font-size="12">maîtriser</text>
	<text x="613" y="432.8" fill="#000000" font-family="Verdana" font-size="12">#aid</text>
	<line x1="613" y1="435" x2="642" y2="435" stroke="#000000" stroke-width="1"/>
	<text x="613" y="449.8" fill="#000000" font-family="Verdana" font-size="12">#tid</text>
	<line x1="613" y1="452" x2="639" y2="452" stroke="#000000" stroke-width="1"/>
</g>

<!-- Link from &quot;eid&quot; (CLIENT) to &quot;eid&quot; (ENTREPRISE) -->
<path d="M249 203.5 C303 263 305 322.5 251 322.5" fill="none" stroke="#5aae61" stroke-width="2"/>
<polygon points="251 322.5 263 316.5 259 322.5 263 328.5" fill="#5aae61" stroke-width="0"/>
<circle cx="249" cy="203.5" r="2" stroke="#5aae61" stroke-width="2" fill="#5aae61"/>

<!-- Link from &quot;cid&quot; (CLIENT) to &quot;cid&quot; (CLIENT) -->
<path d="M179 220.5 C125 144 125 67.5 179 67.5" fill="none" stroke="#5aae61" stroke-width="2"/>
<polygon points="179 67.5 167 73.5 171 67.5 167 61.5" fill="#5aae61" stroke-width="0"/>
<circle cx="179" cy="220.5" r="2" stroke="#5aae61" stroke-width="2" fill="#5aae61"/>

<!-- Link from &quot;cid&quot; (INSCRIRE) to &quot;cid&quot; (CLIENT) -->
<path d="M328 95.5 C288.5 81.5 301.67 67.5 249 67.5" fill="none" stroke="#5aae61" stroke-width="2"/>
<polygon points="249 67.5 261 61.5 257 67.5 261 73.5" fill="#5aae61" stroke-width="0"/>
<circle cx="328" cy="95.5" r="2" stroke="#5aae61" stroke-width="2" fill="#5aae61"/>

<!-- Link from &quot;sid&quot; (INSCRIRE) to &quot;sid&quot; (SESSION) -->
<path d="M386 112.5 C424.5 91 411.67 69.5 463 69.5" fill="none" stroke="#5aae61" stroke-width="2"/>
<polygon points="463 69.5 451 75.5 455 69.5 451 63.5" fill="#5aae61" stroke-width="0"/>
<circle cx="386" cy="112.5" r="2" stroke="#5aae61" stroke-width="2" fill="#5aae61"/>

<!-- Link from &quot;aid&quot; (SESSION) to &quot;aid&quot; (ANIMATEUR) -->
<path d="M539 137.5 C571 172.5 560.33 207.5 603 207.5" fill="none" stroke="#5aae61" stroke-width="2"/>
<polygon points="603 207.5 591 213.5 595 207.5 591 201.5" fill="#5aae61" stroke-width="0"/>
<circle cx="539" cy="137.5" r="2" stroke="#5aae61" stroke-width="2" fill="#5aae61"/>

<!-- Link from &quot;fid&quot; (SESSION) to &quot;fid&quot; (FORMATION) -->
<path d="M463 154.5 C409 209.5 411 264.5 465 264.5" fill="none" stroke="#5aae61" stroke-width="2"/>
<polygon points="465 264.5 453 270.5 457 264.5 453 258.5" fill="#5aae61" stroke-width="0"/>
<circle cx="463" cy="154.5" r="2" stroke="#5aae61" stroke-width="2" fill="#5aae61"/>

<!-- Link from &quot;sid&quot; (ANIMER) to &quot;sid&quot; (SESSION) -->
<path d="M613 103.5 C576 86.5 588.33 69.5 539 69.5" fill="none" stroke="#5aae61" stroke-width="2"/>
<polygon points="539 69.5 551 63.5 547 69.5 551 75.5" fill="#5aae61" stroke-width="0"/>
<circle cx="613" cy="103.5" r="2" stroke="#5aae61" stroke-width="2" fill="#5aae61"/>

<!-- Link from &quot;aid&quot; (ANIMER) to &quot;aid&quot; (ANIMATEUR) -->
<path d="M613 120.5 C559 164 549 207.5 603 207.5" fill="none" stroke="#5aae61" stroke-width="2"/>
<polygon points="603 207.5 591 213.5 595 207.5 591 201.5" fill="#5aae61" stroke-width="0"/>
<circle cx="613" cy="120.5" r="2" stroke="#5aae61" stroke-width="2" fill="#5aae61"/>

<!-- Link from &quot;eid&quot; (CONCURRENTES) to &quot;eid&quot; (ENTREPRISE) -->
<path d="M113 316.5 C145 319.5 134.33 322.5 177 322.5" fill="none" stroke="#5aae61" stroke-width="2"/>
<polygon points="177 322.5 165 328.5 169 322.5 165 316.5" fill="#5aae61" stroke-width="0"/>
<circle cx="113" cy="316.5" r="2" stroke="#5aae61" stroke-width="2" fill="#5aae61"/>

<!-- Link from &quot;eid&quot; (CONCURRENTES) to &quot;eid&quot; (ENTREPRISE) -->
<path d="M113 333.5 C145 328 134.33 322.5 177 322.5" fill="none" stroke="#5aae61" stroke-width="2"/>
<polygon points="177 322.5 165 328.5 169 322.5 165 316.5" fill="#5aae61" stroke-width="0"/>
<circle cx="113" cy="333.5" r="2" stroke="#5aae61" stroke-width="2" fill="#5aae61"/>

<!-- Link from &quot;fid&quot; (PRE_REQUIS) to &quot;fid&quot; (FORMATION) -->
<path d="M399 256.5 C432 260.5 421 264.5 465 264.5" fill="none" stroke="#5aae61" stroke-width="2"/>
<polygon points="465 264.5 453 270.5 457 264.5 453 258.5" fill="#5aae61" stroke-width="0"/>
<circle cx="399" cy="256.5" r="2" stroke="#5aae61" stroke-width="2" fill="#5aae61"/>

<!-- Link from &quot;fid&quot; (PRE_REQUIS) to &quot;fid&quot; (FORMATION) -->
<path d="M399 273.5 C432 269 421 264.5 465 264.5" fill="none" stroke="#5aae61" stroke-width="2"/>
<polygon points="465 264.5 453 270.5 457 264.5 453 258.5" fill="#5aae61" stroke-width="0"/>
<circle cx="399" cy="273.5" r="2" stroke="#5aae61" stroke-width="2" fill="#5aae61"/>

<!-- Link from &quot;tid&quot; (FORMATION) to &quot;tid&quot; (THEME) -->
<path d="M537 366.5 C591 412.5 581 458.5 527 458.5" fill="none" stroke="#5aae61" stroke-width="2"/>
<polygon points="527 458.5 539 452.5 535 458.5 539 464.5" fill="#5aae61" stroke-width="0"/>
<circle cx="537" cy="366.5" r="2" stroke="#5aae61" stroke-width="2" fill="#5aae61"/>

<!-- Link from &quot;eid&quot; (INTERESSER) to &quot;eid&quot; (ENTREPRISE) -->
<path d="M320 408.5 C285.5 365.5 297 322.5 251 322.5" fill="none" stroke="#5aae61" stroke-width="2"/>
<polygon points="251 322.5 263 316.5 259 322.5 263 328.5" fill="#5aae61" stroke-width="0"/>
<circle cx="320" cy="408.5" r="2" stroke="#5aae61" stroke-width="2" fill="#5aae61"/>

<!-- Link from &quot;tid&quot; (INTERESSER) to &quot;tid&quot; (THEME) -->
<path d="M394 425.5 C434.5 442 421 458.5 475 458.5" fill="none" stroke="#5aae61" stroke-width="2"/>
<polygon points="475 458.5 463 464.5 467 458.5 463 452.5" fill="#5aae61" stroke-width="0"/>
<circle cx="394" cy="425.5" r="2" stroke="#5aae61" stroke-width="2" fill="#5aae61"/>

<!-- Link from &quot;aid&quot; (MAITRISER) to &quot;aid&quot; (ANIMATEUR) -->
<path d="M672 428.5 C726 318 731 207.5 677 207.5" fill="none" stroke="#5aae61" stroke-width="2"/>
<polygon points="677 207.5 689 201.5 685 207.5 689 213.5" fill="#5aae61" stroke-width="0"/>
<circle cx="672" cy="428.5" r="2" stroke="#5aae61" stroke-width="2" fill="#5aae61"/>

<!-- Link from &quot;tid&quot; (MAITRISER) to &quot;tid&quot; (THEME) -->
<path d="M608 445.5 C567.5 452 581 458.5 527 458.5" fill="none" stroke="#5aae61" stroke-width="2"/>
<polygon points="527 458.5 539 452.5 535 458.5 539 464.5" fill="#5aae61" stroke-width="0"/>
<circle cx="608" cy="445.5" r="2" stroke="#5aae61" stroke-width="2" fill="#5aae61"/>
</svg>